<svg width="18" height="18" viewBox="0 0 18 18" fill="none" xmlns="http://www.w3.org/2000/svg">
<path d="M14.7129 8.99065L15.3193 8.23286L15.0557 8.02704L15.4775 7.61539L15.1523 7.35344L15.5742 7.01664L15.3018 6.79211L15.7412 4.50936L15.0732 2.39502M15.0732 2.39502L10.7842 4.08837H7.20703L2.91797 2.39502L2.25 4.50936L2.69824 6.79211L2.41699 7.01664L2.84766 7.35344L2.52246 7.61539L2.94434 8.02704L2.68066 8.23286L3.28711 8.99065L2.36426 12.0218L3.2168 15.1185L6.21387 14.2391L6.79395 14.7443L7.98047 15.605H10.0107L11.1973 14.7443L11.7773 14.2391L14.7832 15.1185L15.6445 12.0218L14.7129 8.99065" fill="#F5841F"/>
<path d="M15.0732 2.39502L9.80859 6.5208L10.7842 4.08837L15.0732 2.39502Z" fill="#E27625"/>
<path d="M2.91797 2.39502L8.13867 6.55822L7.20703 4.08837L2.91797 2.39502Z" fill="#E27625"/>
<path d="M13.1836 11.9657L11.7773 14.2297L14.7832 15.1091L15.6445 12.0125L13.1836 11.9657Z" fill="#E27625"/>
<path d="M2.36426 12.0125L3.2168 15.1091L6.21387 14.2297L4.81641 11.9657L2.36426 12.0125Z" fill="#E27625"/>
<path d="M6.05566 8.12996L5.2207 9.4678L8.19141 9.60813L8.09473 6.22144L6.05566 8.12996Z" fill="#E27625"/>
<path d="M11.9443 8.12991L9.87012 6.18396L9.80859 9.60808L12.7793 9.46774L11.9443 8.12991Z" fill="#E27625"/>
<path d="M6.21387 14.2297L8.01562 13.3129L6.45996 12.0405L6.21387 14.2297Z" fill="#E27625"/>
<path d="M9.98438 13.3129L11.7773 14.2297L11.5312 12.0405L9.98438 13.3129Z" fill="#E27625"/>
<path d="M11.7773 14.2297L9.98438 13.3129L10.1338 14.5478L10.1162 15.0717L11.7773 14.2297Z" fill="#D7C1B3"/>
<path d="M6.21387 14.2297L7.88379 15.0717L7.875 14.5478L8.01562 13.3129L6.21387 14.2297Z" fill="#D7C1B3"/>
<path d="M7.91016 11.2172L6.4248 10.7588L7.47949 10.2443L7.91016 11.2172Z" fill="#2F343B"/>
<path d="M10.0811 11.2172L10.5205 10.2443L11.5752 10.7588L10.0811 11.2172Z" fill="#2F343B"/>
<path d="M6.21387 14.2297L6.47754 11.9657L4.81641 12.0125L6.21387 14.2297Z" fill="#CC6228"/>
<path d="M11.5225 11.9657L11.7773 14.2297L13.1836 12.0125L11.5225 11.9657Z" fill="#CC6228"/>
<path d="M12.7793 9.46777L9.80859 9.60811L10.0811 11.2173L10.5205 10.2443L11.5752 10.7588L12.7793 9.46777Z" fill="#CC6228"/>
<path d="M6.4248 10.7588L7.47949 10.2443L7.91016 11.2173L8.19141 9.60811L5.2207 9.46777L6.4248 10.7588Z" fill="#CC6228"/>
<path d="M5.2207 9.46777L6.45996 12.0405L6.4248 10.7588L5.2207 9.46777Z" fill="#E27625"/>
<path d="M11.5752 10.7588L11.5312 12.0405L12.7793 9.46777L11.5752 10.7588Z" fill="#E27625"/>
<path d="M8.19141 9.60815L7.91016 11.2173L8.26172 13.1258L8.34082 10.6185L8.19141 9.60815Z" fill="#E27625"/>
<path d="M9.80859 9.60815L9.65918 10.6092L9.72949 13.1258L10.0811 11.2173L9.80859 9.60815Z" fill="#E27625"/>
<path d="M10.0811 11.2172L9.72949 13.1257L9.98438 13.3128L11.5312 12.0405L11.5752 10.7588L10.0811 11.2172Z" fill="#F5841F"/>
<path d="M6.4248 10.7588L6.45996 12.0405L8.01562 13.3128L8.26172 13.1257L7.91016 11.2172L6.4248 10.7588Z" fill="#F5841F"/>
<path d="M10.1162 15.0717L10.1338 14.5478L9.99316 14.4262H7.99805L7.875 14.5478L7.88379 15.0717L6.21387 14.2297L6.79395 14.7349L7.98047 15.605H10.0107L11.1973 14.7349L11.7773 14.2297L10.1162 15.0717Z" fill="#C0AD9E"/>
<path d="M9.98438 13.3128L9.72949 13.1257H8.26172L8.01562 13.3128L7.875 14.5478L7.99805 14.4261H9.99316L10.1338 14.5478L9.98438 13.3128Z" fill="#2F343B"/>
<path d="M15.3018 6.79211L15.7412 4.50936L15.0732 2.39502L9.98438 6.38047L11.9443 8.12995L14.7129 8.99065L15.3193 8.23286L15.0557 8.02704L15.4775 7.62475L15.1523 7.35344L15.5742 7.01664L15.3018 6.79211Z" fill="#763E1A"/>
<path d="M2.25 4.50936L2.69824 6.79211L2.41699 7.01664L2.83887 7.3628L2.51367 7.62475L2.93555 8.02704L2.67187 8.23286L3.28711 8.99065L6.05566 8.12995L8.01562 6.38047L2.91797 2.39502L2.25 4.50936Z" fill="#763E1A"/>
<path d="M14.7129 8.99071L11.9443 8.13L12.7793 9.46784L11.5312 12.0406L13.1836 12.0125H15.6445L14.7129 8.99071Z" fill="#F5841F"/>
<path d="M6.05566 8.13L3.28711 8.99071L2.36426 12.0125H4.81641L6.45996 12.0406L5.2207 9.46784L6.05566 8.13Z" fill="#F5841F"/>
<path d="M9.80859 9.60813L9.98437 6.38048L10.7842 4.08838H7.20703L8.01562 6.38048L8.19141 9.60813L8.26172 10.6185V13.1258H9.72949L9.73828 10.6185L9.80859 9.60813Z" fill="#F5841F"/>
</svg>
