<svg xmlns="http://www.w3.org/2000/svg" xmlns:xlink="http://www.w3.org/1999/xlink" width="220.7" height="110.958" viewBox="0 0 220.7 110.958"><defs><clipPath id="a"><rect width="204.224" height="101.873" transform="translate(4)"/></clipPath></defs><g transform="translate(-14.136 -5.135)"><g transform="translate(10.896 58.388)"><text transform="translate(6.24 12.786) rotate(-90)" fill="#77838f" font-size="3" font-family="SegoeUI, Segoe UI"><tspan x="0" y="0">Transactions per Day</tspan></text></g><g transform="translate(31.136 7.178)"><path d="M95,510.5H298.338" transform="translate(-95 -408.627)" fill="none" stroke="#d8d8d8" stroke-width="0.5" opacity="0.8"/><path d="M95,439.5H298.338" transform="translate(-95 -354.686)" fill="none" stroke="#d8d8d8" stroke-width="0.5" opacity="0.8"/><path d="M95,369.5H298.338" transform="translate(-95 -301.505)" fill="none" stroke="#d8d8d8" stroke-width="0.5" opacity="0.8"/><path d="M95,298.5H298.338" transform="translate(-95 -247.564)" fill="none" stroke="#d8d8d8" stroke-width="0.5" opacity="0.8"/><path d="M95,227.5H298.338" transform="translate(-95 -193.623)" fill="none" stroke="#d8d8d8" stroke-width="0.5" opacity="0.8"/><path d="M95,157.5H298.338" transform="translate(-95 -140.441)" fill="none" stroke="#d8d8d8" stroke-width="0.5" opacity="0.8"/><path d="M95,86.5H298.338" transform="translate(-95 -86.5)" fill="none" stroke="#d8d8d8" stroke-width="0.5" opacity="0.8"/></g><g transform="translate(30.25 108.93)" opacity="0.8"><path d="M159.5,510v2.4" transform="translate(-132.368 -510)" fill="none" stroke="#bbbfc4" stroke-width="0.5" opacity="0.8"/><path d="M229.5,510v2.4" transform="translate(-174.009 -510)" fill="none" stroke="#bbbfc4" stroke-width="0.5" opacity="0.8"/><path d="M300.5,510v2.4" transform="translate(-215.717 -510)" fill="none" stroke="#bbbfc4" stroke-width="0.5" opacity="0.8"/><path d="M370.5,510v2.4" transform="translate(-256.836 -510)" fill="none" stroke="#bbbfc4" stroke-width="0.5" opacity="0.8"/><path d="M441.5,510v2.4" transform="translate(-298.543 -510)" fill="none" stroke="#bbbfc4" stroke-width="0.5" opacity="0.8"/><path d="M511.5,510v2.4" transform="translate(-340.298 -510)" fill="none" stroke="#bbbfc4" stroke-width="0.5" opacity="0.8"/><path d="M582.5,510v2.4" transform="translate(-381.431 -510)" fill="none" stroke="#bbbfc4" stroke-width="0.5" opacity="0.8"/><path d="M95,510.5H299.224" transform="translate(-95 -510.38)" fill="none" stroke="#bbbfc4" stroke-width="0.5" opacity="0.8"/></g><g transform="translate(26.25 7.057)"><g clip-path="url(#a)"><path d="M4.853,133.5l.163.6h.975l.163-.139.163-.056.163.1.163-.048.163-.2.163.2.163-.055.163-.023.162.06.163-.015h.326l.163-.051.162.064.163-.11.163.023.163-.041.163-.017h.162l.163.022.163-.1.163.056.163.042.162-.029.163-.043h.326l.163.028.162-.059.163.008h.163l.163-.012.163.006h.162l.163.018.163-.076.163.059.163-.031.163.033.162.011.163-.031.163.034.163-.03.163.041.162-.081.163.007.163-.034.163-.041.163.08.162.025H14.3l.163.01.163-.025.163.026.162-.009.163-.037.163.024h.163l.163-.035.162.023.163-.012.163-.045.163.013.163.011.162.016.163.034.163-.039.163-.015h.163l.163.023.162-.02.163.016.163.006.163-.008.163.048.162-.006.163-.014.163-.048.163.036.163.036.163-.007.163-.058.163-.038.163-.033.163-.007.162.026.163.043.163.024.163-.057.163.025.162-.031.163-.026.163-.211.163-.1.163.321.163-.031.163-.14.163.046.163.111.163.046h.163l.162-.018.163.02.163-.015.163-.1.163.172.163-.032.163-.018.163-.08.163.075h.163l.163-.012.163.043.163-.012h.163l.163-.145.163.149.163-.012.163.032.163-.027.163.008.162-.157.163.133.163.03.163-.021.163-.03.162-.045.163-.007L27,133.6l.163-.552.163-.377.163.733.163.047.163.039.163-.019.163-.038.163-.148.162-.609.163-.116.163.628.163.27.163-.082.163-.757.163.645.163.068.163-.707.163.779.163.141.163-.063.163-.007.163-.015.163-.472.163-.044.163-.34.163.758.163-.059.163.1.163-.039h.162l.163-.462.163.476.163.053.163-.054.163.062.163-.215.163-.034.163.191.163-.008.162-.211.163.192.163-.121.163-.294.163.042.163-.152.163.135.106.04.163.118.163.034h.162l.163-.006h.163l.163-.007.163-.06.163-1.1.163,1.165.163-.031.163-.054.163-.11.162-.292.163.143.163.083.163.1.163-.036.163-.027.162-.166.163.205.163-.1.163.115.163-.028.162-.073.163-.02.163-.072H39l.163-.106.162.142.163-.006.163-.088.163-.1.163-.121.162-.087.163.037.163-.192.163-.037.163.3.162-.056.163-.031.163-.018.163.115.163-.324.163-.016.162-.027.163-.051.163.114.163-.4.163.116.163-.2.163.158h.163l.163-.026.163.075.162-.351.163.013.163.008.163.453.163-.247.162-.021.163-.194.163.306.163-.072.163.269.162-.016.163-.361.162-.29.162.482.163.012L46,131.8l.163.142.162-.021.162.13.163-.3.162-.093.163.086.162-.012.162.3.163-.66.162.454.162.061.163-.022.162-.288.163.374.162-.012.162-.149.163-.094.162.193.162-.086.163-.034.162-.2L49.55,131l.162.42.162-.148.163.267.162.023.163-.083.162-.174.162.367.163-.285.162.1.162-.144.163-.009.162-.285.163-.186.162.135.162.182.163.383.162-.2.162-.389.163.1.162-.044.163.106.162.321.162-.334.163.061.162-.24.163-.32.162-1.29.162,1.436.163.211.162.2.162-.1.163.147.162.173.163-.012.162.133H55.4l.163-.072.162-.488.162.388.163.039.162-.02.163.22.162-.386.162-.245.163-.282.162.481.163-.009.162-1.573.162.236.163.818.162.266.162-.014.163-.088.162.223.163.233.162.355.162-.335.163.133.162-.233.162-.462.163-.955.162,1.621.163.056.162-.034.162-.013.163.046.162.093.163-.172.162-.141.162.142.163.072.162.053.162-.151.163.344.162-.48.163.116.162.207.162.282.163-.359.162-.339.162-.438.163.39.162-.243.163.234.162-.9.162.228.163-.481.162.6.162.3.163.089.162.355.163-.458.162.188.162-.208.163-.03.162.184.163.241.162.117.162-.1h.163l.162-.225.162-.052.163-.076.162.256.163.225.162.035.162-.117.163-.451.162.277.162-.2.163.329.162.111.163-.083.162-.116.162-.284.163.109.162-.207.163.175.162-.044.162.362.163-.2.162-.1.162.077.163-.112.162-.538.163.721.162-.227.162.371.163-.437.162.027.162-.494.163.139.162.75.163-.032.162-.121.162.172.163-.765.162.084.163-.333.162.723.162.611.163-.177.162-.921.162.646.163-.55.162,1.184.163-.557.162.32.162-.326.163-.224.162.435.162-.162.163.473.162-1.171.163.134.162.233.162-.611.163,1.015.162.333.163-.468.162.409.162-.424.163-.068.162.264.162.75.163-.152.162-.663.163.567L77,131.7l.162-.214.163-.935.162.91.162-.335.163-.974.162,1.359.163.164.162-1.167.162.335.163.167.162.055.163.192.162.1.162.039.163-.38.162-.271.162.374.163.08.162.664.163-.348.162.224.162-.513.163.025.162.071.162.024.163-.062.162.013.163-.19.162-.112.162.1.163.149.162.064.163-.207.162.3.162-.192.163-.042.162-.737.162-.727.163,1.863.162-1.441.163,1.173.162-.247.162-.268.163.092.162.534.162.14.163-.307.162.019.163.116.162-.134.162-.447.163.438.162.147.163-.126.162.06.162.1.163.029.162-.4.162-.179.163.081.162.146.163.306.162.19.162-.608.163.092.162-.445.162-.3.163.732.162.45.163.079.162.138.162-.53.163-.069.162-.215.163.135.162.227.162.169.163-.062.162-.423.162-.325.163.073.162.393.163.013.162.061.162-.235.163-.135.162.2.162-.365.163-.017.162.6.163.02.162-.246.162-.088.163.114.162.093.163-.146.162.168.162-.28.163.092.162-.295.162.282.163-.041.162.012.163.1.162.182.162-.194.163.117.162-.061.162.056.163.063.162-.179.163-.077.162-.052.162-.31.163.053.162.218.162-.3.163.384.162.084.163-.725.162-.157.162.2.163.383.162.018H97.3l.162.08.162-.131.163-.562.162.548.162.188.163-.44.162.057.163.1.162-.063.162-.518.163.034.162-.747.162.44.163.376.162.117h.163l.162-.378.162.489.163-.6.162-.059.163.022.162-.125.162-1.024.163.31.162-.275.162-1.952.163.225.162,1.135.163.361.162.294.162-.274.163.372.162-.245.162-.363.163.23.162.33.163-1.021.162.694.162-.592.163-.214.162-.468.163,1.53.162-.569.162-.765.163.947.162-.077.162-.527.163.158.162,1.406.163-.164.162-.063.162-.027.163-.3.162-.257.162.2.163.43.162.284.163-.13.162-.731.162-.165.163.019.162.283.163.526.162-.24.162-.235.163-.849.162.23.162-1.009.163-.115.162,1.009.163-.263.162-1.155.162.126.163.884.162-1.191.162.432.163.917.162-.789.163-.739.162.311.162.221.163-.51.162.676.163.4h.162l.162-1.456.163.438.162-1.616.162.185.163-1.641.162,2.082.163-1.276.162-1.8.162-.738.163-.012.162.291.162.9.163,1.383.162-.4.163-.222.162-2.382.162-1.393.163,1.016.162.289.162,1.307.163-.3.162-.691.163-.694.162-.452.162,1.323.163-1.91.162.168.163-1.843.162-3.562.162.875.163,2.013.162-.761.162.925.163.406.162-.267.163-2.734.162-1.513.162,5.922.163-4.274.162.558.163,1.728.162,1.32.162-5.817.163,4.332.162-1.443.162.71.163.757.162.828.163-.554.162-3.628.162,1.4.163.67.162.87.162-2.486.163,3.209.162,1.559.163-5.26.162.744.162.533.163,1.568.162.772.162,1.183.163-1.166.162.045.163-1.534.162.063.162,1.362.163,1.189.162,1.833.163-3.73.162-.177.162,1.368.163,1.355.162-.165.162-1.43.163,3.241.162-.533.163-2.952.162,2.14.162-.848.163-.358.162-1.414.162-.288.163-.253.162-1.09.163-2.56.162,2.619.162-3.934.163-1.253.162,1.224.163.383.162-5.233.162-.216.163-.026.162-.977.162-1.043.163,4.478.162,4.584.163-5.634.162,1.912.162-.678.163,1.511.162-.011.162,3.148.163-1.216.162-2.691.163-2.1.162-.378.162,1.073.163-.447.162,4.021.163,1.988.162-9.513.162-.135.163-3.518.162,3.262.162-1.041.163,5.434.162,3.975.163-2.734.162-2.684.162,2.664.163-.99.162-4.178.162,4.618.163,5.722.162-4.974.163,1.7.162.867.162.537.163,3.1.162.772.163-1.414.162-1.745.162.037.163-.2.162-1.369.162.184.163,2.085.162.81.163-1.509.162-1.481.162,1.393.163-.5.162-.345.162,1.955.163-.39.162-2.129.163-1.456.162.36.162-1.3.163-1.068.162,3.19.163.221.162-5.391.162-6.609.163,2.388.162-1.612.162-3.576.163,5.7.162,1.862.163-2.219.162-1.638.162,2.164.163-.407.162-1.341.162.108.163-.654.162-2.611.163.864.162-.535.162-.1.163,2.953.162,5.911.163-1.246.162-6.422.162,2.8.163-.679.162.9.162.662.163,4.282.162-2.717.163-.6.162-2.228.162-4.388.163,3.335.162-1.162.162,3.322.163-.332.162-4.454.163.414.162-1.524.162.64.163.784.162-2.42.163,1.269.162-4.5.162-2.057.163-1.67.162.552.162,2.223.163-.344.162-4.484.163-.545.162.594.162-6.7.163,9.011.162-7.29.162,4.02.163-.635.162-7.628.163-2.95.162-2.533.162-2.236.163,2.6.162.3.163,1.581.162-7.3.162-7.349.163,7.208.162-5.879.162-2.1.163,12.54.162,10.91.163.4.162-4.153.162-6.74.163-2.5.162-9.555.162-3.156.163,12.882.162,2.583.163-16.639.162-5.711.162-7.6.163,5.319.162,3.067.162,5,.163-4.262.162-2.769.163,5.335.162.253.162,3.75.163-4.113.162,6.637.163-8.478.162-4.857.162.058.163,4.883.162,11,.162,3.991.163-1.5.162,2.283L152.343,71,152.5,72l.162,8.5.163-11.2.162,8.248.162-3.879.163-3.242.162,2.056.163,1.989L153.9,65.6l.162,1.876.163,11.318.162.924.163-5.086.162-.846.162,4.727.163,9.324.162-7.366.162-3.979.163,5.086.162-3.771.163,5.65.162-.038.162-2.1.163,4.928.162-4.572.162,1.086L156.821,79l.162-5.128.163,2.472.162,6.018.162,1.957.163.015.162,2.871.163-3.183.162,2.912.162-1.751.163,2.443.162-4.093.162,4.836.163,2.053.162-7.438.163,2.728.162-4.833.162,6.358.163,2.722.162,3.985.162-1.19.163-4.687.162-1.439.163,1.894.162,1.132h.162l.163,4.169.162-6.173.163-1.345.162,2.859.162-2.45.163,5.326.162-3.915.162,4.34.163,5.9.162-6.808.163,2.89.162.285.162-.259.163-3.392.162,3.343.162,2.666.163-3.624.162-3.224.163,1.191.162-4.58L164.3,90.1l.163,7.615.162-4.066.163-.955.162,2.609.162-2.561.163-5.671.162-2.563L165.6,92.6l.163-.6.162-3.017.163-5.326.162,2.685.162-7.54.163-1.216.162,5.849.162-.187.163-3.668.162-.916.163,1.178.162.349.162,2,.163-.736.162,1.268.162-1.459.163,4.367.162-5.018.163-3.522.162-10.93.162,14.348.163,6.655.162-6.7.163-2.053.162-.749.162-1.61L169.986,78l.162,2.554.162,1.769.163-2.672.162,1.533.163-1.9.162-1.936.162.267.163-.982.162,4.686.163-1.693.162-1.372.162-.745.163,1.508.162.7.162,2.642.163-.957.162-5.771.163,3.316.162-.339.162-1.065.163,5.066.162-.664.162-2.851.163.192.162,1.8.163,1.806.162-1.478.162,3.79.163-3.356.162-.126.162.156.163-.083.162-1.863.163,2.154.162.143.162,8.423.163-.6.162-3.206.163-5.638.162-1.651.162,3.467.163-1.251.162,6.421.162.266.163-11.224.162,7.138.163-2.7.162,1.844.162.658.163,6.935.162.7.163,9.038.162-5.7.162,8.586.163-5.465.162,4.653.162-1.7.163-10.011.162-1.387.163-2.706.162,3.25.162,5.288.163.186.162,3.692.162,3.752.163-17,.162.184.163-3.046.162.777.162,4.285.163,3.462.162-3.716.162-5.657L182,80.793l.162-.178.163,4.2.162-4.284.162,5.755.163-.841.162-2.809.163.859.162-.862.162-1.506.163,1.816.162,2.217.162,1.107.163.32.162,4.292.163,4.8.162,1.843.162-5.118.163-2.949.162,1.045.162-3.6.163.312.162,2.838.163-4.629.162,7.434.162-1.376.163,1.892.162-4.354.163,3.948.162.728.162-.315.163.226.162,1.29.162.215.163-4.881.162,2.179.163,4.55.162-3.124.162,1.059.163-5.365.162,2.444.162-.758.163,2.846.178-2.53.163,2.581.162.46.162,2.638.163-1.514.162.273.163.292.162-.907.162,1.013.163,2.809.162,2.357.162,1.444.163-6.472.162,3.614.163-.458.162.619.162-3.161.163,5.051.162.114.162-.8.163-2.633.162,1.739.163-.716.162.247.162,4.489.163-3.059.162.207.163-.948.162-4.669.162-.012.163-2.457.162-.1.162,6.73.163-3.061.162.395.163,1.376.162-3.651.162.569.163,1.382.162,2.043.162-3.416.163-.913.162-.333.163.989.162-2.4.162,4.553.163,1.77.162-4.706.163,1.432.162,1.6.162-.308.163-.95.162,3.535.162-.727.163-7.12.162.428.163,1.541.162-.23.162,2.755.163,2.956.162-.4.162-4.856.163-1.006.162,2.212.163.625.162.512.162,3.988.163-2.627.162-2.945L200.2,96.5l.162-1.942.162,1.3.163.743.162,3.16.162,1.411.163-9.382.162-.191.163,3.139.162.722.162.6.163,4.272.162-2.17.162-1.925.163-.573.162-3.855.163,4.55.162-2.951.162,4.977.163,2.265.162-3.782.162-1.161.163-2.087.162.341.163,1.257.162,1.342.162,3.063.163-3.248.162,1.316.163.142.162-2.158.162.935.163-1.045.162,3.437.162-3.623.163.932.162-2.819.163-.313.162-.278.162,7.537.163-3.267.162-4.883.162,5.471.163-1.7.162.79.163-1.615.162,1.932.162,5.661L208,98.645l.162,5.017.163-9.63.162-.452.162,3.207.163,2.6.162,1.617" transform="translate(-2.812 -32.236)" fill="none" stroke="#bbbfc4" stroke-linecap="round" stroke-linejoin="round" stroke-width="0.5"/></g></g><g transform="translate(55.678 114.093)"><text transform="translate(-2.92 1)" fill="#77838f" font-size="3" font-family="SegoeUI, Segoe UI"><tspan x="0" y="0">Jan &apos;19</tspan></text><text transform="translate(26.146 1)" fill="#77838f" font-size="3" font-family="SegoeUI, Segoe UI"><tspan x="0" y="0">Jul &apos;19</tspan></text><text transform="translate(53.993 1)" fill="#77838f" font-size="3" font-family="SegoeUI, Segoe UI"><tspan x="0" y="0">Jan &apos;20</tspan></text><text transform="translate(83.906 1)" fill="#77838f" font-size="3" font-family="SegoeUI, Segoe UI"><tspan x="0" y="0">Jul &apos;20</tspan></text><text transform="translate(112.753 1)" fill="#77838f" font-size="3" font-family="SegoeUI, Segoe UI"><tspan x="0" y="0">Jan &apos;21</tspan></text><text transform="translate(141.666 1)" fill="#77838f" font-size="3" font-family="SegoeUI, Segoe UI"><tspan x="0" y="0">Jul &apos;21</tspan></text><text transform="translate(169.158 1)" fill="#77838f" font-size="3" font-family="SegoeUI, Segoe UI"><tspan x="0" y="0">Jan &apos;22</tspan></text></g><g transform="translate(24.033 7.135)"><text transform="translate(1.244 103.113)" fill="#77838f" font-size="3" font-family="SegoeUI, Segoe UI"><tspan x="0" y="0">0 k</tspan></text><text transform="translate(-1.837 86.054)" fill="#77838f" font-size="3" font-family="SegoeUI, Segoe UI"><tspan x="0" y="0">250 k</tspan></text><text transform="translate(-1.837 68.995)" fill="#77838f" font-size="3" font-family="SegoeUI, Segoe UI"><tspan x="0" y="0">500 k</tspan></text><text transform="translate(-1.837 52.177)" fill="#77838f" font-size="3" font-family="SegoeUI, Segoe UI"><tspan x="0" y="0">750 k</tspan></text><text transform="translate(-3.897 35.118)" fill="#77838f" font-size="3" font-family="SegoeUI, Segoe UI"><tspan x="0" y="0">1 000 k</tspan></text><text transform="translate(-3.897 18.059)" fill="#77838f" font-size="3" font-family="SegoeUI, Segoe UI"><tspan x="0" y="0">1 250 k</tspan></text><text transform="translate(-3.897 1)" fill="#77838f" font-size="3" font-family="SegoeUI, Segoe UI"><tspan x="0" y="0">1 500 k</tspan></text></g></g></svg>